<svg width="22" height="19" viewBox="0 0 22 19" fill="none" xmlns="http://www.w3.org/2000/svg">
<path d="M0 8.88354C0 9.34058 0.351562 9.73608 0.914062 9.73608C1.18652 9.73608 1.43262 9.58667 1.65234 9.41089L10.3711 2.0896C10.6172 1.87866 10.8984 1.87866 11.1445 2.0896L19.8545 9.41089C20.0654 9.58667 20.3115 9.73608 20.584 9.73608C21.1025 9.73608 21.498 9.41089 21.498 8.90112C21.498 8.60229 21.3838 8.36499 21.1553 8.17163L18.6855 6.09741V2.44116C18.6855 2.04565 18.4307 1.79956 18.0352 1.79956H16.8223C16.4355 1.79956 16.1719 2.04565 16.1719 2.44116V3.97925L12.0059 0.481201C11.2412 -0.1604 10.2744 -0.1604 9.50977 0.481201L0.351562 8.17163C0.114258 8.36499 0 8.62866 0 8.88354ZM2.85645 16.7849C2.85645 18.0505 3.64746 18.8152 4.95703 18.8152H16.5498C17.8506 18.8152 18.6504 18.0505 18.6504 16.7849V10.1052L11.2939 3.94409C10.9512 3.64526 10.5381 3.65405 10.2041 3.94409L2.85645 10.1052V16.7849ZM13.0605 17.1628H8.44629V11.5378C8.44629 11.1248 8.71875 10.8611 9.13184 10.8611H12.3838C12.7969 10.8611 13.0605 11.1248 13.0605 11.5378V17.1628Z" fill="#323643"/>
</svg>
