<svg width="19" height="19" viewBox="0 0 19 19" fill="none" xmlns="http://www.w3.org/2000/svg">
<path d="M9.0791 18.1582C14.0449 18.1582 18.1582 14.0537 18.1582 9.0791C18.1582 4.11328 14.0449 0 9.07031 0C4.10449 0 0 4.11328 0 9.0791C0 14.0537 4.11328 18.1582 9.0791 18.1582ZM4.96582 12.8584L8.34961 4.23633C8.63086 3.55957 9.52734 3.54199 9.79102 4.21875L13.1836 12.8584C13.4648 13.5615 12.7178 14.0801 12.1201 13.4824L9.30762 10.6699C9.16699 10.5293 8.99121 10.5293 8.8418 10.6699L6.0293 13.4824C5.44043 14.0801 4.68457 13.5615 4.96582 12.8584Z" fill="#323643"/>
</svg>
