<svg width="8" height="10" viewBox="0 0 8 10" fill="none" xmlns="http://www.w3.org/2000/svg">
<path d="M0.558105 9.33398C0.808594 9.33398 0.984375 9.22412 1.25244 8.96045L3.52002 6.71045C3.54199 6.68848 3.56396 6.6709 3.58594 6.6709C3.60352 6.6709 3.62549 6.68848 3.64746 6.71045L5.91504 8.96045C6.18311 9.22412 6.35889 9.33398 6.60938 9.33398C6.94336 9.33398 7.16748 9.0791 7.16748 8.72754C7.16748 8.54297 7.09717 8.32324 7.01807 8.10352L4.27588 0.650391C4.11768 0.224121 3.89355 0 3.58594 0C3.27832 0 3.0498 0.219727 2.8916 0.650391L0.149414 8.10352C0.0703125 8.32324 0 8.54297 0 8.72754C0 9.0791 0.224121 9.33398 0.558105 9.33398Z" fill="#323643"/>
</svg>
