<svg width="21" height="21" viewBox="0 0 21 21" fill="none" xmlns="http://www.w3.org/2000/svg">
<path d="M10.6534 19.0283L19.2667 10.4062C19.9523 9.71191 20.0226 9.30762 20.0226 8.30566V4.97461C20.0226 3.99902 19.7941 3.66504 19.0822 2.95312L17.0695 0.94043C16.3488 0.228516 16.0148 0 15.048 0H11.7081C10.715 0 10.3107 0.0703125 9.62512 0.764648L0.994265 9.37793C-0.324094 10.6963 -0.341672 12.0938 1.00305 13.4209L6.61048 19.0283C7.94641 20.3555 9.33509 20.3467 10.6534 19.0283ZM9.51966 17.6836C8.93958 18.2637 8.33313 18.2725 7.73548 17.6748L2.34778 12.2959C1.75012 11.6982 1.7677 11.083 2.33899 10.5117L10.8732 1.99512C11.049 1.81934 11.2159 1.71387 11.4972 1.71387H15.0304C15.2941 1.71387 15.4786 1.81055 15.6544 1.98633L18.0363 4.36816C18.2032 4.54395 18.2999 4.71973 18.2999 4.99219V8.52539C18.2999 8.81543 18.212 8.98242 18.0363 9.1582L9.51966 17.6836ZM13.9493 7.33008C14.67 7.33008 15.215 6.77637 15.215 6.06445C15.215 5.36133 14.67 4.79883 13.9493 4.79883C13.2374 4.79883 12.6925 5.36133 12.6925 6.06445C12.6925 6.77637 13.2374 7.33008 13.9493 7.33008Z" fill="#8C9099"/>
</svg>
